<?xml version="1.0" encoding="UTF-8" standalone="no"?>
<svg
   role="img"
   viewBox="0 0 24 24"
   id="Gentoo--Streamline-Simple-Icons"
   height="24"
   width="24"
   version="1.1"
   xmlns="http://www.w3.org/2000/svg"
   xmlns:svg="http://www.w3.org/2000/svg">
  <defs
     id="defs1" />
  <desc
     id="desc1">
    Gentoo Streamline Icon: https://streamlinehq.com
  </desc>
  <title
     id="title1">Gentoo</title>
  <path
     d="M 9.94,0 A 7.31,7.31 0 0 0 8.68,0.116 c -4.344,0.795 -7.4,4.555 -7.661,7.031 -0.126,1.215 0.53,2.125 0.89,2.526 0.977,1.085 2.924,1.914 4.175,2.601 -1.81,1.543 -2.64,2.296 -3.457,3.154 -1.224,1.284 -2.084,2.697 -2.087,3.71 0,0.325 -0.053,1.365 0.371,2.187 0.16,0.309 0.613,1.338 1.98,2.109 0.874,0.494 2.119,0.675 3.337,0.501 3.772,-0.538 8.823,-3.737 12.427,-6.716 2.297,-1.9 3.977,-3.739 4.462,-4.644 0.39,-0.731 0.434,-2.043 0.207,-2.866 C 22.679,7.372 17.437,2.584 13.152,0.658 A 7.824,7.824 0 0 0 9.94,0 Z M 9.932,0.068 a 7.4,7.4 0 0 1 3.344,0.755 c 3.46,1.7 9.308,6.482 9.739,8.886 0.534,2.972 -9.931,11.017 -16.297,12.272 -2.47,0.485 -4.576,0.618 -5.537,-1.99 -0.832,-2.262 0.783,-3.916 3.16,-6.09 a 92.546,92.546 0 0 1 2.96,-2.576 C 7.366,11.256 1.595,9.266 1.411,6.982 1.221,4.634 4.938,0.3 9.697,0.076 9.777,0.072 9.854,0.069 9.932,0.068 Z M 9.82,0.588 A 5.647,5.647 0 0 0 9.314,0.62 C 6.977,0.865 6.529,1.167 4.411,2.769 3.701,3.306 2.395,4.613 2.061,6.162 c -0.128,0.59 0.024,1.1 0.448,1.458 1.36,1.144 3.639,2.072 5.509,2.97 0.547,0.263 0.185,0.74 -0.698,1.505 -2.227,1.928 -5.24,4.276 -5.45,6.066 -0.099,0.842 0.19,1.988 1.213,2.574 1.195,0.685 3.676,0.238 5.333,-0.379 2.422,-0.902 5.602,-2.892 8.127,-4.848 2.625,-2.034 5.067,-4.617 5.188,-5.038 C 21.879,9.953 21.864,9.474 21.577,8.924 21.129,8.062 20.528,7.421 19.883,6.704 18.151,4.879 16.32,3.274 14.129,2.046 12.694,1.242 11.417,0.564 9.82,0.588 Z m 1.075,3.623 c 0.546,0 1.176,0.173 1.853,0.5 1.688,0.817 3.422,2.961 -0.015,4.195 C 11.798,9.242 8.833,8.082 8.923,6.499 9.013,4.929 9.777,4.21 10.895,4.211 Z M 11.18,5.578 C 10.863,5.576 10.605,5.657 10.486,5.841 9.929,6.702 10.183,7.313 10.698,7.703 10.89,7.246 12.854,7.746 12.846,8.175 A 0.32,0.32 0 0 0 12.901,8.143 C 14.605,6.861 12.429,5.586 11.181,5.578 Z"
     fill="#000000"
     stroke-width="1"
     id="path1" />
  <path
     style="fill:#800080;stroke-width:0.0284698"
     d="M 4.1708185,21.036592 C 3.0216513,20.896592 2.2891901,20.30182 1.9752615,19.25376 1.8768249,18.925126 1.8481358,18.2855 1.9184045,17.986126 2.1400154,17.041973 2.9776886,15.958597 4.698127,14.391068 4.95615,14.155978 5.6220641,13.573756 6.1779359,13.097242 7.5276558,11.940213 7.8175624,11.679555 8.0012954,11.45784 8.2043499,11.212809 8.2818195,11.061624 8.283411,10.907276 8.2844982,10.801847 8.2700222,10.768774 8.189951,10.693753 8.1286559,10.636324 7.6637685,10.404182 6.8732251,10.036245 4.5806193,8.9692151 3.6507005,8.464751 2.8042705,7.8289116 2.309938,7.4575681 2.1113246,7.1732276 2.0480387,6.7462688 1.968383,6.2088703 2.2693036,5.331715 2.815464,4.5092965 3.3094107,3.7655023 3.8704031,3.198412 4.8143451,2.4886881 5.9836265,1.6095377 6.6534075,1.2098598 7.316726,0.99544515 7.975639,0.78245442 9.1180726,0.61485907 9.9074733,0.61538175 10.923174,0.61605427 11.711388,0.82685412 12.91317,1.4192246 c 2.386284,1.1762233 4.288896,2.5860842 6.446574,4.7769966 1.175038,1.1931374 1.856692,2.043034 2.20415,2.748168 0.186993,0.379487 0.255728,0.6773264 0.235342,1.0197685 -0.02094,0.3517673 -0.07366,0.5157783 -0.243271,0.7568063 -0.477715,0.678868 -2.103381,2.30825 -3.577317,3.585494 -2.943582,2.55077 -7.009764,5.104792 -9.6555701,6.06479 C 7.5604638,20.647954 6.5667103,20.890873 5.7651246,20.99653 5.3435502,21.0521 4.4768627,21.07388 4.1708185,21.03659 Z M 12.762464,8.9083761 c 0.318118,-0.1070864 0.77065,-0.3233429 1.028973,-0.4917261 0.625656,-0.407823 0.927424,-0.8620174 0.927424,-1.3958739 0,-0.518498 -0.248012,-0.9819055 -0.818318,-1.5290141 C 13.121283,4.7441979 11.878322,4.211799 10.903915,4.2082124 10.302148,4.2059974 9.9521964,4.3384544 9.5768063,4.710523 9.3844487,4.9011786 9.3239641,4.9847678 9.2154147,5.2099644 8.9300401,5.8020003 8.8327243,6.6069347 8.9946266,7.0361799 c 0.2065583,0.5476405 0.8152641,1.1038907 1.6266814,1.4865017 0.834586,0.3935362 1.670532,0.5441181 2.141156,0.3856945 z"
     id="path2" />
  <path
     style="fill:#800080;stroke-width:0.0284698"
     d="M 4.9537367,23.96773 C 3.6877922,23.903573 2.6605673,23.449264 1.800426,22.573119 1.1475938,21.908141 0.74051759,21.11718 0.60801539,20.256228 0.55101365,19.885851 0.54182185,18.980514 0.59269571,18.747331 0.77681782,17.903398 1.3254387,16.946522 2.2325298,15.887218 2.5648842,15.499094 3.5065053,14.55891 4.0794984,14.04307 c 0.724056,-0.651836 1.5027632,-1.324391 1.5169731,-1.310181 0.00723,0.0072 -0.2016863,0.20392 -0.4642603,0.437087 -2.5971025,2.306241 -3.5069704,3.337058 -3.9615542,4.488166 -0.1511124,0.38265 -0.21191072,0.706253 -0.2126599,1.131894 -9.5573e-4,0.54299 0.0718155,0.881124 0.313953,1.458791 0.3994359,0.952932 1.0204247,1.560126 1.8842795,1.842421 0.8959213,0.292774 2.3930589,0.205239 4.1992895,-0.245523 1.1781532,-0.29402 2.5290896,-0.814845 4.0181459,-1.549112 4.933042,-2.432526 10.125538,-6.663132 11.374482,-9.267404 C 23.05467,10.390056 23.114658,9.8962932 22.946798,9.3941247 22.628991,8.4433759 21.550532,7.0725105 19.957295,5.5940655 17.492533,3.3068883 14.256867,1.0938062 12.464245,0.46908185 11.102612,-0.00544429 9.6071322,-0.06849174 8.1384493,0.28671197 7.9351234,0.33588672 7.7623937,0.36974844 7.7546056,0.36196026 7.7322075,0.33956225 8.5527112,0.14808166 8.8825623,0.09872945 10.124852,-0.08714145 11.5191,0.05829843 12.715728,0.4985832 c 0.615975,0.2266406 1.897719,0.8954024 2.800286,1.4610759 3.256614,2.0410444 6.497133,5.1004921 7.515641,7.0956872 0.308545,0.604422 0.404974,1.0263227 0.406236,1.7773937 0.0024,1.399947 -0.324887,2.028342 -1.949593,3.743772 -2.971441,3.137369 -7.998238,6.683311 -11.7231734,8.26962 -1.9809173,0.843598 -3.4659679,1.189782 -4.8113879,1.121598 z"
     id="path3" />
  <path
     style="fill:#800080;stroke-width:0.0284698"
     d="m 6.064628,12.312479 c 0.019807,-0.02387 0.030984,-0.04804 0.024838,-0.05372 C 6.083316,12.253059 5.7003557,12.053243 5.238434,11.814681 3.5132964,10.923725 2.8608951,10.522357 2.2130502,9.9534127 1.7072161,9.5091835 1.2853281,8.8272188 1.1036533,8.1601173 1.0500569,7.9633136 1.0407374,7.8566582 1.0411528,7.4448399 1.041603,6.9986329 1.0484654,6.9341868 1.1290684,6.6192171 1.3755219,5.6561583 1.9327236,4.6283737 2.718827,3.6868327 2.9767012,3.3779685 3.5574456,2.7615658 3.5905681,2.7615658 c 0.014734,0 -0.1416003,0.1825623 -0.3474097,0.405694 -0.6426303,0.6967181 -1.0988471,1.347022 -1.4230609,2.0284697 -0.2007761,0.4220003 -0.3001341,0.709784 -0.3706553,1.0735767 -0.1618519,0.8349344 0.026818,1.4012151 0.6986954,2.0970952 0.8200783,0.8493748 2.2322601,1.6969796 4.369574,2.6226606 0.4091453,0.177202 0.740287,0.331109 0.7358705,0.342015 -0.00442,0.0109 -0.1809842,0.165154 -0.3923721,0.342774 -0.2113879,0.177619 -0.4754696,0.403737 -0.5868484,0.502483 -0.1900803,0.168521 -0.290939,0.233992 -0.2097336,0.136145 z"
     id="path4" />
  <path
     style="fill:#800080;stroke-width:0.0284698"
     d="m 12.839858,8.1018626 c 0,-0.070155 -0.227489,-0.2387859 -0.443372,-0.3286581 -0.36502,-0.1519583 -0.706698,-0.230493 -1.081091,-0.2484889 -0.307105,-0.014762 -0.356968,-0.010292 -0.476868,0.042745 -0.07364,0.032577 -0.133901,0.075528 -0.133901,0.095446 0,0.078477 -0.319684,-0.2823737 -0.407134,-0.4595615 -0.08446,-0.171131 -0.09101,-0.2052989 -0.09007,-0.4697509 8.64e-4,-0.2412944 0.01246,-0.3127128 0.07531,-0.4639516 0.121565,-0.2925018 0.253998,-0.4889715 0.379181,-0.5625341 0.513175,-0.3015624 1.792407,0.046066 2.438973,0.6627858 0.213309,0.2034623 0.32357,0.3780279 0.381432,0.6038845 0.04264,0.1664518 0.0428,0.1971871 0.0019,0.3629844 -0.05563,0.2254209 -0.199874,0.4460973 -0.424413,0.6492932 -0.179754,0.1626684 -0.219944,0.1838294 -0.219944,0.1158058 z"
     id="path5" />
  <path
     style="fill:#800080;stroke-width:0.00390625"
     d="m 3.7578125,2.6296643 v -0.043572 l 0.064741,-0.05746 C 4.9753613,1.5054724 6.3538104,0.73869746 7.7714844,0.33200277 8.6226527,0.08782413 9.3724859,-0.01463606 10.173211,0.00382122 c 0.09272,0.00213731 0.182648,0.00479548 0.199836,0.00590704 0.01719,0.00111157 0.06377,0.00386254 0.103516,0.00611328 0.626744,0.03549125 1.28291,0.15718069 1.900375,0.35243459 0.06128,0.0193783 0.07841,0.0262525 0.0795,0.0319068 10e-4,0.005334 -2.85e-4,0.006565 -0.005,0.004737 -0.02075,-0.007962 -0.222842,-0.0686285 -0.299864,-0.0900164 C 11.580068,0.15621864 11.031566,0.06683031 10.394531,0.02856998 10.228798,0.01861605 9.7244105,0.01857862 9.5605469,0.02850809 9.1746313,0.05189301 8.9129426,0.08482237 8.5878906,0.15090148 8.1727887,0.23528665 7.7539062,0.34052829 7.7539062,0.360435 c 0,0.0119641 0.1331961,-0.0126524 0.3730555,-0.0689461 C 8.2992516,0.25105338 8.4035215,0.22843114 8.5234375,0.20547002 9.2781469,0.0609609 10.03232,0.02564628 10.777344,0.09992948 c 0.444067,0.04427609 0.883566,0.12865694 1.310504,0.25160784 0.132622,0.0381929 0.35976,0.11100397 0.36697,0.11763541 0.01131,0.010406 -0.01174,0.004582 -0.107845,-0.0272408 C 11.422412,0.1357741 10.464661,0.01621273 9.4960938,0.08604076 7.982723,0.19514598 6.4747392,0.72381004 5.0976562,1.6280309 4.7326771,1.8676836 4.3678619,2.1424353 4.03125,2.4311688 3.958135,2.4938838 3.9309011,2.5178718 3.8359375,2.6031996 c -0.033301,0.029922 -0.064502,0.057921 -0.069336,0.06222 l -0.00879,0.00782 z"
     id="path6" />
</svg>
